<svg viewBox="0 0 2059 2134" fill="none" xmlns="http://www.w3.org/2000/svg">
<mask id="mask0_4_8" style="mask-type:alpha" maskUnits="userSpaceOnUse" x="0" y="0">
<path d="M1150.67 207.467C1143.73 208.4 1133.87 210.133 1128.67 211.333C1106 216.533 1075.6 222.4 1064 223.867C1057.07 224.8 1047.47 226.133 1042.67 226.8C1029.87 228.667 976.267 232 958.667 232C943.867 232 920.533 229.733 905.333 226.8C854.667 217.2 810.933 213.467 795.333 217.467C792.4 218.133 777.067 218.8 761.2 218.667C720.4 218.533 695.6 222.4 652.667 235.6C637.867 240.133 599.067 254.4 590 258.667C588.533 259.333 577.733 263.6 566 268.133C554.267 272.667 540.8 277.733 536.133 279.6C531.467 281.467 515.867 286.8 501.467 291.467C487.067 296.133 472.8 301.2 469.733 302.667C466.533 304.133 463.733 305.333 463.2 305.333C461.6 305.333 437.733 317.733 428.133 323.6C380.933 352.267 341.2 393.6 311.067 445.333C304.8 456 290.667 484.4 290.667 486.133C290.667 486.667 288 493.333 284.8 501.2C281.467 508.933 276.667 521.067 274 528C271.333 534.933 268.533 541.867 267.867 543.333C267.333 544.8 264.267 552.267 261.333 560C258.267 567.733 253.2 580.4 249.867 588.267C246.667 596.133 244 602.933 244 603.333C244 603.733 241.333 610.533 238.133 618.4C234.8 626.267 227.6 644.4 222 658.667C210.267 688.533 204.4 703.467 202.667 707.333C202.133 708.8 200.8 712.133 200 714.667C199.067 717.2 197.467 721.067 196.533 723.333C195.067 727.067 193.467 731.067 184.667 754.4C175.467 778.533 167.2 798.933 161.867 810.4C159.333 815.867 157.333 820.4 157.333 820.667C157.333 822 146.267 844.8 145.467 845.333C144.8 845.733 144 847.733 143.6 850C143.2 852.133 141.067 859.067 138.667 865.333C125.733 900.8 123.2 924 130.533 939.333C136.4 952 147.867 962.267 165.733 971.067C180.133 978.133 184.667 980.267 194.667 984.133C213.2 991.333 243.867 1009.33 263.733 1024.93C267.333 1027.73 272 1031.33 274.133 1032.93C276.267 1034.53 280.4 1037.73 283.333 1039.87C286.267 1042.13 291.333 1045.87 294.667 1048.27C298 1050.53 300.933 1052.93 301.333 1053.33C302.933 1055.47 326.8 1070.4 334.667 1074.27C355.067 1084.13 366.4 1087.87 396.667 1094.67C420.4 1100 461.333 1101.87 473.6 1098C485.733 1094.4 493.333 1088.67 503.733 1075.2L506.667 1071.33L505.733 1076C505.067 1078.53 504.933 1101.6 505.2 1127.33C505.733 1180.4 503.6 1217.33 498 1256C495.467 1273.2 492.4 1301.07 490.667 1322C489.333 1337.73 488 1350.53 484 1388C481.867 1406.4 477.733 1433.07 474 1450.67C472.933 1455.47 471.2 1464.13 470 1470C468.933 1475.87 467.067 1484.27 466.133 1488.67C460.933 1511.2 454.933 1539.07 452 1553.33C448.667 1570.13 440.533 1600.4 433.6 1622.67C424.267 1652 415.2 1681.73 412.8 1691.07C411.733 1694.93 406.667 1711.2 401.333 1727.33C387.333 1770.13 383.6 1787.2 383.6 1808.67C383.467 1827.2 384.267 1830.13 392.267 1840.8C404.933 1857.73 437.333 1871.2 483.333 1878.67C504.667 1882.13 514.933 1884.67 545.333 1894.67C551.6 1896.67 561.2 1899.73 566.667 1901.33C572.133 1902.93 578 1904.8 579.6 1905.47C581.2 1906 588.4 1908.13 595.6 1910.13C633.467 1920.27 649.867 1923.87 673.867 1927.33C681.733 1928.53 691.067 1930 694.533 1930.53C697.867 1931.2 706.133 1932.4 712.667 1933.33C719.333 1934.13 730.133 1935.6 736.667 1936.67C743.333 1937.73 754.4 1939.2 761.333 1940C768.267 1940.8 780.267 1942.27 788 1943.33C795.733 1944.27 809.2 1945.87 818 1946.67C826.8 1947.47 841.867 1948.93 851.333 1950C860.933 1950.93 878 1952.4 889.333 1953.2C900.667 1954 920.8 1955.33 934 1956.27C966.667 1958.67 1111.6 1958.67 1141.33 1956.27C1189.33 1952.53 1198.53 1951.73 1214 1949.87C1222.8 1948.8 1235.47 1947.33 1242 1946.53C1248.67 1945.73 1258.8 1944.27 1264.67 1943.33C1270.53 1942.4 1280.13 1940.93 1286 1940C1291.87 1939.2 1300.53 1937.6 1305.33 1936.67C1310.13 1935.6 1318.8 1933.87 1324.67 1932.8C1330.53 1931.73 1342.53 1929.2 1351.33 1927.33C1371.07 1923.07 1396.67 1917.87 1407.33 1915.87C1411.73 1915.07 1419.2 1913.73 1424 1912.67C1428.8 1911.73 1436.27 1910.13 1440.67 1909.33C1459.2 1905.47 1489.47 1896.67 1499.33 1892C1500.8 1891.33 1506.53 1888.93 1512 1886.53C1523.2 1881.73 1538.4 1872.4 1545.07 1866.13C1550.8 1860.93 1557.47 1850.53 1560.8 1842C1564.93 1831.33 1564.27 1799.6 1559.6 1776C1554.4 1750.13 1552.4 1739.47 1550.67 1727.33C1549.87 1721.47 1548.27 1712.13 1547.33 1706.67C1546.4 1701.2 1544.93 1691.6 1544.13 1685.33C1543.2 1679.07 1541.73 1669.2 1540.67 1663.33C1539.73 1657.47 1538.27 1647.6 1537.33 1641.33C1536.53 1635.07 1535.07 1625.47 1534 1620C1533.07 1614.53 1531.6 1604.93 1530.67 1598.67C1529.87 1592.4 1528.4 1583.47 1527.33 1578.67C1524.27 1563.6 1522.27 1552.8 1522 1549.33C1521.73 1546.27 1520 1537.6 1517.33 1526.67C1516.67 1524.13 1515.2 1517.2 1514 1511.33C1510.93 1495.87 1504.53 1470.67 1499.87 1455.33C1488.53 1418.13 1489.07 1421.87 1487.87 1366C1486.93 1317.07 1486.13 1304.8 1482.8 1284.67C1479.6 1266 1477.47 1252.4 1476.13 1241.33C1472.13 1210 1470.67 1196.4 1470.67 1188.93C1470.67 1180.13 1469.07 1165.33 1466 1146C1465.07 1139.33 1463.47 1129.2 1462.67 1123.33C1461.73 1117.47 1460.27 1107.6 1459.2 1101.33C1458.27 1095.2 1457.07 1080.13 1456.67 1068C1456 1047.6 1456.13 1046.4 1458 1051.07C1463.47 1065.07 1475.87 1086.4 1482.93 1094.13C1495.33 1107.47 1497.87 1108 1541.73 1108C1570.4 1108 1581.47 1107.47 1594.67 1105.47C1603.87 1104.13 1612.8 1102.4 1614.67 1101.6C1616.53 1100.93 1620.4 1099.6 1623.33 1098.67C1630.13 1096.67 1644.8 1091.2 1650 1088.8C1668.13 1080.4 1680.27 1073.87 1714.67 1054.13C1729.73 1045.47 1751.87 1033.2 1764 1026.93C1787.6 1014.8 1810.67 1001.73 1819.33 995.733C1822.27 993.6 1828 989.6 1832 986.8C1840.93 980.4 1863.07 957.867 1869.73 948.4C1876.8 938.267 1881.33 928.667 1881.33 923.867C1881.33 918.4 1878.8 913.333 1870 901.467C1858.93 886.533 1852.13 871.6 1840.8 837.333C1835.07 820.133 1829.07 802.133 1827.33 797.333C1825.6 792.533 1822.27 783.2 1820 776.667C1814.67 761.467 1800.4 723.733 1797.33 716.667C1796.13 713.733 1794.27 709.2 1793.33 706.667C1792.4 704.133 1789.6 697.6 1787.07 692.267C1784.67 686.8 1782.67 682.267 1782.67 682C1782.67 681.6 1775.47 666.133 1763.87 641.733C1761.07 635.733 1758.67 630.533 1758.67 630.133C1758.67 629.733 1756.4 624.533 1753.6 618.4C1750.8 612.267 1747.07 603.733 1745.33 599.333C1743.6 594.933 1741.73 590.667 1741.07 589.867C1740.53 589.067 1739.2 585.867 1738.13 582.8C1736.93 579.733 1735.2 575.333 1734.13 572.933C1733.07 570.667 1729.07 560.8 1725.33 551.333C1721.6 541.733 1718 532.8 1717.33 531.333C1716.67 529.867 1713.6 522.4 1710.53 514.667C1707.6 506.933 1703.6 497.6 1701.87 493.733C1700.13 490 1698.67 486.533 1698.67 486.133C1698.67 484.8 1677.07 440.933 1672.67 433.333C1670.27 429.333 1666.8 423.333 1665.07 420C1657.6 406.667 1633.2 368.667 1630.8 366.667C1630.4 366.267 1628.27 363.6 1626.13 360.667C1606.8 334.267 1563.33 301.467 1525.33 284.4C1519.87 281.867 1513.6 279.067 1511.33 278C1501.47 273.2 1461.47 259.333 1443.33 254.4C1440.4 253.6 1435.33 252.267 1432 251.333C1428.67 250.4 1424.53 249.2 1422.67 248.8C1420.8 248.267 1416 247.067 1412 245.867C1408 244.8 1402.27 243.333 1399.33 242.8C1396.4 242.133 1386.8 239.733 1378 237.333C1369.2 234.933 1359.6 232.533 1356.67 231.867C1353.73 231.333 1347.73 229.867 1343.33 228.533C1331.6 225.333 1313.33 221.467 1275.33 214C1233.73 205.867 1182.27 203.067 1150.67 207.467ZM1200 220.267C1200 223.067 1187.6 246.933 1185.73 247.6C1184.8 248 1180.93 247.467 1177.2 246.667C1172.93 245.6 1160.93 244.933 1146.67 245.067C1123.73 245.067 1107.2 246.8 1085.33 251.333C1080.53 252.267 1072.8 253.867 1068 254.667C1063.2 255.467 1055.47 257.067 1050.67 258C1045.87 259.067 1038.4 260.533 1034 261.467C1029.6 262.267 1022.13 263.733 1017.33 264.667C1012.53 265.6 1001.73 267.067 993.333 268C984.933 268.8 974.667 270.133 970.667 270.8C956 273.467 933.2 273.733 912 271.467C884.133 268.533 870.8 266.8 857.333 264.667C828.533 260 790.667 258 776 260.4L770 261.333L765.2 253.733C760.133 245.867 754.667 235.067 754.667 233.067C754.667 232.533 758.933 232 764.133 232C771.467 232 774.133 232.533 775.333 234.133C776.533 236 777.467 236 779.867 234.8C784.933 232 804.133 229.333 818.667 229.333C832 229.333 855.6 231.733 870 234.533C873.733 235.2 881.2 236.533 886.667 237.333C892.133 238.133 899.733 239.467 903.333 240.133C917.867 242.933 942.8 245.333 958.667 245.333C978 245.333 1030.8 242.133 1045.33 240.133C1050.8 239.333 1060.13 238 1066 237.2C1079.6 235.467 1098.53 231.867 1127.33 225.6C1134 224.267 1144.13 222.267 1150 221.467C1155.87 220.533 1161.6 219.6 1162.67 219.333C1163.73 219.2 1172.67 218.933 1182.4 218.8C1195.2 218.667 1200 219.067 1200 220.267ZM1230.93 221.467L1245.33 223.067L1244.53 226.533C1244.13 228.4 1239.2 239.333 1233.6 250.667C1205.47 308.267 1165.6 348.933 1111.33 375.333C1073.87 393.6 1037.47 402.933 988.933 406.8C963.2 408.8 949.333 407.467 908 398.667C900.267 397.067 871.733 387.067 860 381.867C838.4 372.4 811.333 356.267 794.667 342.8C791.333 340.133 786.533 336.4 784 334.533C777.6 329.733 742.933 294.4 735.6 285.2C724.4 271.2 705.333 241.2 705.333 237.6C705.333 236.4 730.267 232 737.2 232C740.8 232 741.6 232.667 743.6 237.6C757.6 272.533 798.133 312.4 850 342.267C880.267 359.733 916.533 373.6 948 379.6C960 381.867 988.133 382.133 1002.4 380C1018.13 377.733 1043.07 371.733 1054 367.733C1057.73 366.267 1063.33 364.267 1066.4 363.2C1076.4 359.733 1105.47 344.533 1117.33 336.533C1129.73 328.267 1146.27 315.067 1156.4 305.467C1163.07 299.067 1181.73 276.8 1186.13 269.867C1187.47 267.733 1189.07 265.333 1189.73 264.667C1193.6 259.867 1200.67 247.2 1206.8 234.133C1210.67 225.867 1214.53 219.2 1215.33 219.333C1216 219.6 1223.07 220.533 1230.93 221.467ZM1286.67 229.867C1318.8 236.267 1366.67 248.133 1439.33 267.333C1448.13 269.6 1485.73 282 1490 284C1491.47 284.667 1495.73 286.4 1499.33 287.867C1512.67 293.067 1539.07 306.267 1552.67 314.667C1575.47 328.667 1602.27 352.533 1617.2 372C1634.93 395.2 1660.27 437.333 1675.07 468C1684.8 488.267 1691.33 503.467 1703.6 534C1717.07 568 1735.33 611.733 1740.8 623.6C1743.33 628.933 1745.33 633.467 1745.33 633.867C1745.33 634.533 1758.13 662.133 1760 665.6C1763.33 671.6 1788 728.4 1788 730C1788 730.533 1788.8 732.8 1789.87 735.067C1794.27 744.533 1811.87 794.267 1826.8 838.667C1832.8 856.667 1839.2 874.667 1840.93 878.667L1844.13 886L1823.07 906.667C1803.2 926 1785.07 942.267 1772.67 951.333C1768.27 954.667 1757.87 962.667 1751.2 967.867C1745.73 972.133 1710.27 995.733 1699.33 1002.4C1659.87 1026.13 1620.67 1041.33 1582 1048C1576.93 1048.93 1569.73 1050.13 1566 1050.93C1554.93 1053.07 1513.87 1055.87 1494.4 1056C1472.8 1056 1474.93 1057.6 1466.93 1036C1458.93 1014.53 1457.6 1009.73 1455.33 996C1454.27 989.067 1452.27 979.067 1450.8 974C1449.47 968.8 1447.87 960.4 1447.47 955.333C1446.93 950.133 1446 941.2 1445.2 935.333C1444.53 929.467 1443.33 919.6 1442.53 913.333C1441.87 907.067 1440.4 896.267 1439.33 889.333C1435.87 867.067 1433.33 840.8 1433.33 828C1433.33 803.6 1439.2 778 1450.67 752C1468.53 711.067 1475.07 690.8 1482.13 652C1487.07 625.467 1487.87 620.8 1487.33 620.267C1487.07 619.867 1486.53 621.067 1486.13 622.8C1474.4 680.133 1466.13 706 1447.2 744.4C1432.27 774.667 1428 789.2 1425.2 818.533C1423.33 837.733 1424.8 868.933 1428.8 899.867C1429.87 908.267 1430.8 922.133 1430.8 930.533C1430.8 951.067 1433.87 971.6 1440.4 996C1442.8 1004.93 1443.07 1010.53 1443.33 1048.67C1443.47 1081.6 1444 1094.13 1445.6 1103.33C1446.8 1109.87 1448.4 1119.87 1449.33 1125.33C1450.13 1130.8 1451.6 1140.67 1452.67 1147.33C1456.13 1169.07 1457.33 1180.53 1457.33 1189.6C1457.33 1194.4 1458.27 1205.87 1459.33 1214.93C1460.4 1223.87 1462 1236.67 1462.8 1243.33C1463.6 1249.87 1465.07 1259.87 1466 1265.33C1466.93 1270.8 1468.4 1280.67 1469.33 1287.33C1470.13 1293.87 1471.47 1303.2 1472.27 1308C1473.07 1312.8 1474.13 1339.47 1474.67 1367.33C1475.2 1395.2 1476.27 1420.67 1477.07 1424C1478.53 1430.67 1480.67 1438.4 1486.53 1458C1495.33 1486.93 1506.67 1537.47 1513.33 1578C1514.13 1583.07 1515.6 1591.87 1516.67 1597.33C1517.6 1602.8 1519.07 1612.13 1520 1618C1521.73 1630.13 1524.67 1649.07 1527.33 1664.67C1528.27 1670.53 1529.73 1680.4 1530.67 1686.67C1531.47 1692.93 1532.93 1702.8 1534 1708.67C1535.07 1714.53 1536.53 1723.87 1537.33 1729.33C1538.13 1734.8 1539.6 1743.87 1540.67 1749.33C1541.73 1754.8 1543.2 1763.2 1544 1768C1544.8 1772.8 1546.13 1779.33 1546.8 1782.53C1548 1787.73 1547.87 1788.67 1545.07 1791.6C1542.53 1794.4 1521.07 1808 1519.47 1808C1519.07 1808 1514.53 1810 1509.07 1812.53C1485.07 1823.6 1452.13 1833.6 1398.93 1846C1380 1850.4 1372.4 1852.13 1366.67 1853.2C1363.33 1853.87 1354.93 1855.6 1348 1857.07C1329.6 1860.8 1320.8 1862.53 1307.33 1864.8C1300.8 1865.87 1290.53 1867.6 1284.67 1868.67C1278.8 1869.6 1269.2 1871.07 1263.33 1871.87C1257.47 1872.67 1246.4 1874.13 1238.67 1875.2C1224.93 1877.07 1209.07 1878.67 1174 1881.33C1096.8 1887.47 903.067 1887.47 842.667 1881.33C834.933 1880.53 821.733 1879.33 813.333 1878.53C804.933 1877.73 792.667 1876.27 786 1875.33C779.467 1874.27 768.933 1872.8 762.667 1872C756.4 1871.2 747.2 1869.6 742 1868.67C736.933 1867.73 728.133 1866.27 722.667 1865.33C717.2 1864.53 708.133 1862.93 702.667 1861.87C697.2 1860.8 689.333 1859.33 685.333 1858.53C681.333 1857.87 674.133 1856.4 669.333 1855.33C664.533 1854.4 657.067 1852.8 652.667 1851.87C648.267 1850.93 638.933 1848.8 632 1847.07C625.067 1845.2 618.4 1843.6 617.333 1843.33C605.867 1840.93 574 1830.27 542.533 1818.27C528.267 1812.8 514.4 1807.6 511.867 1806.93C509.333 1806.13 504.933 1804.67 502 1803.47C489.333 1798.8 473.6 1793.07 468 1791.2C464.667 1790.13 460.267 1788.4 458 1787.47C455.867 1786.4 448.933 1783.73 442.667 1781.33C436.4 1779.07 428.933 1776 426 1774.67C423.067 1773.47 416.933 1770.67 412.4 1768.67C407.733 1766.67 404 1764.53 404 1764C404 1763.47 408.533 1749.33 414 1732.67C419.467 1716.13 424.933 1698.4 426.133 1693.6C427.2 1688.67 429.067 1682.27 430 1679.33C431.067 1676.4 434 1666.8 436.667 1658C439.333 1649.2 442.4 1639.6 443.333 1636.67C451.2 1613.73 459.867 1582.67 463.467 1564.67C464.4 1559.47 466.267 1550.8 467.467 1545.33C468.533 1539.87 470 1532.93 470.667 1530C471.333 1527.07 472.667 1520.8 473.867 1516C474.933 1511.2 476.933 1502.8 478 1497.33C479.2 1491.87 481.867 1478.93 484.133 1468.67C486.267 1458.4 488.667 1446.67 489.333 1442.67C490 1438.67 491.067 1432.27 491.867 1428.67C494.133 1416.93 499.333 1376 501.333 1353.33C502.133 1344.13 503.6 1328 504.8 1317.33C505.867 1306.67 507.333 1291.73 508 1284C508.8 1276.27 510.267 1264.27 511.333 1257.33C517.2 1216.93 519.2 1178.4 518.133 1128.67C517.2 1084.8 517.733 1078.53 524 1060.13C534.4 1028.53 536.933 1016.13 538.667 985.333C539.467 970.267 541.067 954.667 542 950.667C542.933 946.667 544.4 939.467 545.067 934.667C548.533 913.067 551.067 898 554.133 882C556.667 868.133 557.333 860.267 557.333 843.2C557.333 809.2 552.267 787.467 530 727.333C525.067 714.133 519.333 697.6 517.2 690.667C515.067 683.733 512.4 675.333 511.333 672C509.467 666 508.4 660.667 504.8 641.333L502.933 631.333L502.8 638.4C502.667 642.267 503.467 649.2 504.533 653.733C505.6 658.267 507.067 665.867 508 670.667C508.8 675.467 510.267 682 511.2 685.333C512.267 688.667 513.733 693.733 514.533 696.667C515.333 699.6 519.867 714 524.667 728.667C529.467 743.333 534 757.733 534.8 760.667C539.6 777.467 540.4 780.4 545.6 802.667C546.667 807.333 547.333 819.467 547.333 836C547.333 852.533 546.667 864.667 545.6 869.333C541.067 888.533 540 893.333 538.133 902C537.067 907.067 535.467 915.467 534.533 920.667C533.6 925.733 532.133 930.933 531.333 932C530.533 933.067 529.067 937.6 528.133 942C527.067 946.4 525.6 952.667 524.533 956C523.467 959.333 522.4 963.733 522.133 966C520 980.133 507.6 1032.8 506 1034.53C505.733 1034.8 499.333 1033.73 491.733 1032.27C473.867 1028.8 456.8 1025.87 442.667 1024C400.133 1018.53 371.467 1012.13 348.8 1003.2C335.467 997.867 314.667 986.933 306.667 981.067C287.333 966.667 278.8 959.733 259.333 942.8C254.667 938.667 239.467 926.933 234.667 923.733C203.067 902.4 192.4 894 178 879.467C170.533 872 163.067 863.2 161.2 859.867L157.867 853.867L165.333 836.667C169.467 827.067 174.533 815.733 176.533 811.333C180.267 803.467 186 789.067 194.667 766.667C197.067 760.4 200.4 751.733 202 747.333C203.733 742.933 207.333 733.6 210 726.667C212.667 719.733 218.267 705.6 222.267 695.333C226.267 685.067 234.667 663.733 240.933 648C247.067 632.267 252.667 618.133 253.333 616.667C254 615.2 257.067 607.733 260 600C263.067 592.267 266.133 584.533 266.933 582.667C267.6 580.8 271.867 570.267 276.133 559.333C280.533 548.267 284.667 538.133 285.333 536.667C286 535.2 290.533 524 295.333 511.6C304.8 487.333 311.733 472.133 319.333 458.667C322.133 453.867 325.467 447.867 326.933 445.333C336.267 428.933 358.133 400.4 373.733 384.133C382.267 375.333 403.733 356.8 412.533 350.533C416.133 348 421.2 344.533 423.867 342.667C446.267 326.933 473.6 314.533 514.667 301.6C526.133 298 569.333 282 576.667 278.667C578.133 278 585.6 274.933 593.333 272C601.067 268.933 608.533 266 610 265.333C617.067 262 660.533 247.067 671.333 244.267C674.267 243.6 680 242 684.133 240.8C688.267 239.6 692.533 238.667 693.6 238.667C694.933 238.667 698.4 243.6 702.533 251.2C728.933 300.667 776.8 347.467 832.667 378.267C858 392.267 896.4 406.267 921.333 410.533C926.133 411.333 935.067 412.933 941.2 414C970.667 419.2 1024.93 414.4 1064 403.067C1090.13 395.467 1122 381.867 1139.33 370.8C1172.4 349.6 1202 320.4 1223.73 287.333C1231.47 275.467 1245.6 248.267 1251.33 234L1255.2 224.533L1262.53 225.467C1266.67 226 1277.47 228 1286.67 229.867ZM1171.6 254.8C1176.27 255.6 1180 256.8 1180 257.333C1180 259.6 1162.93 281.067 1152.67 291.733C1146.8 297.867 1138.13 306 1133.33 309.733C1128.53 313.467 1124.4 316.933 1124 317.467C1122.67 319.067 1099.07 334.4 1090.4 339.067C1062.53 354.533 1026.13 365.467 988.8 369.733C974.667 371.467 971.467 371.333 957.467 369.2C948.933 368 938.4 365.867 934 364.667C929.6 363.467 924.267 362 922 361.333C917.2 360.133 903.6 355.2 897.733 352.533C895.467 351.467 893.2 350.667 892.8 350.667C892.267 350.667 885.867 347.6 878.533 344C844.667 327.067 815.867 307.067 791.333 283.6C776.4 269.2 776.4 268.8 789.867 267.467C797.733 266.667 830.133 269.2 845.333 271.867C849.333 272.533 858.4 273.733 865.333 274.667C872.267 275.467 883.733 277.067 890.667 278C908.533 280.667 947.467 281.867 962.667 280.133C1003.07 275.733 1018.13 273.733 1032 270.8C1035.33 270.133 1041.87 268.8 1046.67 268C1051.47 267.067 1057.2 265.867 1059.47 265.2C1061.73 264.533 1070.4 262.8 1078.8 261.333C1087.2 260 1097.6 258.133 1102 257.333C1125.73 253.333 1156.27 252.133 1171.6 254.8ZM173.067 887.6C179.467 893.867 189.067 902.4 194.533 906.533C205.2 914.533 205.2 914.533 220.133 924.533C230.667 931.6 245.6 942.667 246.667 944.133C247.333 945.067 256.667 952.8 280.667 972.267C327.6 1010.4 360.133 1022 456 1034.8C466.933 1036.27 484.533 1039.47 492.133 1041.47C494.8 1042.13 498.267 1042.67 499.867 1042.67C503.867 1042.67 503.467 1044.8 497.067 1057.47C489.867 1071.87 482 1080.4 472.533 1084C454.8 1090.53 403.6 1085.2 366.8 1072.8C343.867 1065.07 323.467 1053.6 300.133 1035.33C281.6 1020.93 259.733 1004.8 246.933 996.133C234.933 988.133 208.267 974.267 196.667 970.133C183.867 965.467 160.667 953.2 154.267 947.867C150.8 944.8 146.133 939.333 144 935.467C137.333 924 138.533 908.4 148.533 878.267C150.4 872.533 152.267 867.2 152.8 866.533C153.2 865.867 155.333 867.733 157.6 870.8C159.733 873.733 166.8 881.333 173.067 887.6ZM1850.67 897.6C1851.47 899.333 1854.13 903.333 1856.67 906.667C1859.2 910 1862.8 915.2 1864.8 918.267L1868.27 924L1863.6 932.267C1854.13 949.067 1834.67 968.8 1812.8 983.467C1799.2 992.667 1784.13 1001.2 1754 1016.67C1741.87 1022.93 1729.6 1029.47 1726.53 1031.33C1723.6 1033.2 1719.87 1035.33 1718.27 1036C1716.67 1036.8 1714.13 1038.13 1712.8 1038.93C1705.2 1043.87 1696 1049.33 1695.47 1049.33C1695.07 1049.33 1691.6 1051.2 1687.73 1053.47C1683.87 1055.87 1676.8 1059.73 1672 1062.4C1667.2 1064.93 1660.93 1068.27 1658 1069.87C1650.8 1073.87 1628.13 1083.07 1617.33 1086.53C1598.67 1092.53 1589.6 1093.33 1545.2 1093.33C1503.73 1093.33 1502.93 1093.33 1498.67 1090.27C1494.8 1087.73 1480 1067.87 1480 1065.33C1480 1064.8 1494.27 1064 1511.73 1063.6C1549.47 1062.53 1560.53 1061.33 1594.67 1054.53C1608.27 1051.73 1626.8 1046.13 1645.33 1039.2C1663.87 1032.27 1691.33 1018.4 1705.07 1009.2C1708.27 1007.07 1711.07 1005.33 1711.47 1005.33C1713.2 1005.33 1746.27 982.667 1763.87 969.467C1793.07 947.333 1808.67 934 1830.27 912.267C1839.6 902.8 1847.73 894.933 1848.4 894.933C1848.93 894.8 1850 896 1850.67 897.6ZM429.333 1785.47C434.8 1787.73 441.2 1790.27 443.333 1791.2C448.533 1793.6 457.333 1796.8 506 1814.27C521.467 1819.73 540.667 1826.8 548.933 1830.13C557.2 1833.33 564.267 1836 564.8 1836C565.2 1836 567.467 1836.8 569.733 1837.87C574.8 1840 583.733 1843.07 592 1845.33C595.333 1846.27 599.333 1847.47 600.933 1848.13C605.733 1850 659.867 1862.8 673.333 1865.2C677.333 1866 685.2 1867.47 690.667 1868.53C696.133 1869.6 705.2 1871.2 710.667 1872C716.133 1872.8 724.533 1874.4 729.333 1875.33C738 1877.07 744.533 1878.13 770.667 1881.87C800.533 1886.27 814.667 1887.87 832.667 1889.2C842.933 1890 859.2 1891.33 868.667 1892.13C899.067 1894.93 1056.93 1895.33 1116 1892.8C1199.2 1889.33 1211.07 1888.27 1278 1878.53C1283.2 1877.87 1292.4 1876.27 1298.67 1875.2C1304.93 1874.13 1313.33 1872.67 1317.33 1871.87C1329.07 1869.87 1365.6 1862.67 1370.67 1861.33C1373.2 1860.8 1378.67 1859.6 1382.67 1858.67C1386.67 1857.87 1393.33 1856.4 1397.33 1855.33C1401.33 1854.4 1414 1851.33 1425.33 1848.67C1436.67 1846 1448.67 1843.07 1452 1842C1464.67 1838.13 1492.8 1829.2 1495.33 1828.13C1496.8 1827.47 1501.33 1825.6 1505.33 1824C1517.33 1819.2 1535.07 1810 1542.4 1804.8L1549.2 1799.87L1550.13 1803.33C1551.6 1809.47 1549.73 1832.27 1547.2 1839.33C1543.47 1849.33 1530.27 1861.73 1515.33 1869.47C1494.4 1880.4 1463.07 1891.2 1439.33 1895.87C1434.93 1896.8 1427.47 1898.27 1422.67 1899.33C1417.87 1900.27 1410.13 1901.87 1405.33 1902.67C1389.73 1905.33 1369.07 1909.47 1334.67 1916.8C1316.8 1920.67 1313.07 1921.33 1290.67 1925.2C1260.8 1930.4 1251.47 1931.87 1240 1933.2C1233.73 1934 1221.47 1935.47 1212.67 1936.53C1203.87 1937.6 1188.27 1939.2 1178 1940C1167.73 1940.67 1151.87 1942 1142.67 1942.93C1133.47 1943.73 1092.67 1944.67 1052 1944.93C976.933 1945.6 976.133 1945.6 891.333 1939.87C879.6 1939.07 862.533 1937.6 853.333 1936.67C844.133 1935.6 829.2 1934.13 820 1933.33C810.8 1932.53 797.6 1931.07 790.667 1930C783.733 1929.07 771.733 1927.47 764 1926.67C756.267 1925.87 746.4 1924.53 742 1923.73C737.6 1922.93 730.133 1921.87 725.333 1921.2C711.867 1919.6 672.4 1913.6 664.133 1912C660 1911.2 653.333 1909.87 649.333 1909.07C627.067 1904.93 594.133 1896 562.667 1885.73C525.467 1873.6 518.533 1871.73 482.667 1864.67C450.267 1858.4 432.267 1852.93 419.467 1845.73C409.6 1840.13 403.333 1834.4 399.6 1827.33C395.867 1820.27 395.733 1798.8 399.2 1783.73L401.733 1773.6L410.533 1777.6C415.333 1779.73 423.867 1783.33 429.333 1785.47Z" fill="black"/>
<path d="M501.6 624C501.6 626.533 501.867 627.6 502.267 626.267C502.533 625.067 502.533 622.933 502.267 621.6C501.867 620.4 501.6 621.467 501.6 624Z" fill="black"/>
</mask>
<g mask="url(#mask0_4_8)">
<ellipse cx="1062.5" cy="1061" rx="1321.5" ry="1240" fill="#25A96F"/>
</g>
</svg>
